<svg viewBox="0 0 500 500" xmlns="http://www.w3.org/2000/svg" xmlns:bx="https://boxy-svg.com">
  <defs>
    <bx:grid x="0" y="0" width="5.63" height="5.602"></bx:grid>
    <linearGradient id="color-0" bx:pinned="true">
      <stop style="stop-color: rgb(255, 248, 173);"></stop>
    </linearGradient>
    <linearGradient id="color-1" bx:pinned="true">
      <stop style="stop-color: rgb(76, 118, 145);"></stop>
    </linearGradient>
    <marker id="marker-0" viewBox="0 0 300 300" overflow="visible" orient="auto" refX="50" refY="50" markerWidth="10" markerHeight="10" bx:pinned="true">
      <defs>
        <bx:grid x="0" y="0" width="10" height="10"></bx:grid>
      </defs>
      <path d="M 150 0 L 270 300 L 30 300 L 150 0 Z" style="fill: rgb(64, 52, 52);" transform="matrix(0, -1, -1, 0, 300, 210)" bx:shape="triangle 30 0 240 300 0.5 0 1@7f3803db"></path>
    </marker>
  </defs>
  <polygon style="fill: rgb(216, 216, 216); stroke: rgb(0, 0, 0);" points="354.69 403.344 11.26 403.344 11.26 89.632 489.81 89.632 489.81 403.344 416.62 403.344 416.62 313.712 354.69 313.712"></polygon>
  <rect x="16.89" y="246.488" width="332.17" height="151.254" style="stroke: rgb(0, 0, 0); stroke-linecap: round; fill-rule: nonzero; fill: url(#color-0);"></rect>
  <rect x="16.89" y="95.234" width="112.6" height="95.234" style="stroke: rgb(0, 0, 0); fill: url(#color-0);"></rect>
  <rect x="135.12" y="95.234" width="129.49" height="95.234" style="stroke: rgb(0, 0, 0); fill: url(#color-0);"></rect>
  <rect x="16.89" y="196.07" width="112.6" height="44.816" style="stroke: rgb(0, 0, 0); fill-rule: evenodd; fill: url(#color-0);"></rect>
  <polygon style="stroke: rgb(0, 0, 0); fill-rule: evenodd; fill: url(#color-0);" points="135.12 196.07 135.12 240.886 354.69 240.886 354.69 308.11 416.62 308.11 416.62 240.886 484.18 240.886 484.18 196.07"></polygon>
  <g transform="matrix(1, 0, 0, 1, -39.41, 33.612015)">
    <path style="stroke: rgb(0, 0, 0); filter: none; fill: url(#color-0);" d="M 191.42 187.32 C 202.68 187.32 213.94 198.524 213.94 209.728"></path>
    <polyline style="stroke: rgb(0, 0, 0); filter: none; fill: url(#color-0);" points="191.42 187.193 191.493 209.728 214.013 209.728"></polyline>
    <rect x="191.42" y="207.274" width="22.52" height="5.602" style="stroke: rgb(0, 0, 0); filter: none; fill: url(#color-0);"></rect>
  </g>
  <g transform="matrix(1, 0, 0, 1, -39.41, -16.805986)">
    <path style="stroke: rgb(0, 0, 0); filter: none; fill: url(#color-0);" d="M 191.42 187.32 C 202.68 187.32 213.94 198.524 213.94 209.728"></path>
    <polyline style="stroke: rgb(0, 0, 0); filter: none; fill: url(#color-0);" points="191.42 187.193 191.493 209.728 214.013 209.728"></polyline>
    <rect x="191.42" y="207.274" width="22.52" height="5.602" style="stroke: rgb(0, 0, 0); filter: none; fill: url(#color-0);"></rect>
  </g>
  <g transform="matrix(1, 0, 0, 1, -95.782997, -16.805986)">
    <path style="stroke: rgb(0, 0, 0); filter: none; fill: url(#color-0);" d="M 191.42 187.32 C 202.68 187.32 213.94 198.524 213.94 209.728"></path>
    <polyline style="stroke: rgb(0, 0, 0); filter: none; fill: url(#color-0);" points="191.42 187.193 191.493 209.728 214.013 209.728"></polyline>
    <rect x="191.42" y="207.274" width="22.52" height="5.602" style="stroke: rgb(0, 0, 0); filter: none; fill: url(#color-0);"></rect>
  </g>
  <g transform="matrix(0, -1, 1, 0, -77.756004, 421.10202)" bx:origin="0.002 0.998">
    <path style="stroke: rgb(0, 0, 0); filter: none; fill: url(#color-0);" d="M 191.42 187.32 C 202.68 187.32 213.94 198.524 213.94 209.728"></path>
    <polyline style="stroke: rgb(0, 0, 0); filter: none; fill: url(#color-0);" points="191.42 187.193 191.493 209.728 214.013 209.728"></polyline>
    <rect x="191.42" y="207.274" width="22.52" height="5.602" style="stroke: rgb(0, 0, 0); filter: none; fill: url(#color-0);"></rect>
  </g>
  <g transform="matrix(1.245962, 0, 0, 1.308725, 133.078033, 35.115917)" style="">
    <path style="stroke: rgb(0, 0, 0); filter: none; fill: url(#color-0);" d="M 191.42 187.32 C 202.68 187.32 213.94 198.524 213.94 209.728"></path>
    <polyline style="stroke: rgb(0, 0, 0); filter: none; fill: url(#color-0);" points="191.42 187.193 191.493 209.728 214.013 209.728"></polyline>
    <rect x="191.42" y="208.595" width="22.52" height="4.281" style="stroke: rgb(0, 0, 0); filter: none; fill: url(#color-0);"></rect>
  </g>
  <rect x="112.6" y="308.11" width="78.82" height="28.01" style="stroke: rgb(0, 0, 0); fill: rgb(230, 171, 83);"></rect>
  <rect x="197.05" y="308.11" width="56.3" height="28.01" style="stroke: rgb(0, 0, 0); fill: rgb(230, 171, 83);"></rect>
  <rect x="258.98" y="308.11" width="56.3" height="28.01" style="stroke: rgb(0, 0, 0); fill: rgb(230, 171, 83);"></rect>
  <rect x="112.6" y="341.722" width="78.82" height="28.01" style="stroke: rgb(0, 0, 0); fill: rgb(230, 171, 83);"></rect>
  <rect x="197.05" y="341.722" width="56.3" height="28.01" style="stroke: rgb(0, 0, 0); fill: rgb(230, 171, 83);"></rect>
  <rect x="140.75" y="308.11" width="16.89" height="16.806" style="stroke: rgb(0, 0, 0); fill: rgb(255, 255, 255);"></rect>
  <rect x="168.9" y="308.11" width="16.89" height="16.806" style="stroke: rgb(0, 0, 0); fill: rgb(255, 255, 255);"></rect>
  <rect x="112.6" y="347.324" width="16.89" height="16.806" style="stroke: rgb(0, 0, 0); fill: rgb(255, 255, 255);"></rect>
  <rect x="140.75" y="352.926" width="16.89" height="16.806" style="stroke: rgb(0, 0, 0); fill: rgb(255, 255, 255);"></rect>
  <rect x="168.9" y="352.926" width="16.89" height="16.806" style="stroke: rgb(0, 0, 0); fill: rgb(255, 255, 255);"></rect>
  <rect x="202.68" y="308.11" width="16.89" height="16.806" style="stroke: rgb(0, 0, 0); fill: rgb(255, 255, 255);"></rect>
  <rect x="230.83" y="308.11" width="16.89" height="16.806" style="stroke: rgb(0, 0, 0); fill: rgb(255, 255, 255);"></rect>
  <rect x="202.68" y="352.926" width="16.89" height="16.806" style="stroke: rgb(0, 0, 0); fill: rgb(255, 255, 255);"></rect>
  <rect x="230.83" y="352.926" width="16.89" height="16.806" style="stroke: rgb(0, 0, 0); fill: rgb(255, 255, 255);"></rect>
  <rect x="264.61" y="308.11" width="16.89" height="16.806" style="stroke: rgb(0, 0, 0); fill: rgb(255, 255, 255);"></rect>
  <rect x="292.76" y="308.11" width="16.89" height="16.806" style="stroke: rgb(0, 0, 0); fill: rgb(255, 255, 255);"></rect>
  <rect x="258.98" y="341.722" width="56.3" height="28.01" style="stroke: rgb(0, 0, 0); fill: rgb(230, 171, 83);"></rect>
  <rect x="264.61" y="352.926" width="16.89" height="16.806" style="stroke: rgb(0, 0, 0); fill: rgb(255, 255, 255);"></rect>
  <rect x="292.76" y="352.926" width="16.89" height="16.806" style="stroke: rgb(0, 0, 0); fill: rgb(255, 255, 255);"></rect>
  <g transform="matrix(0, -1, 1, 0, -117.082008, 504.463928)">
    <path style="stroke: rgb(0, 0, 0); stroke-linecap: round; fill: url(#color-1);" d="M 143.148 221.802 C 145.288 219.237 153.102 219.237 155.242 221.802"></path>
    <rect x="144.873" y="224.08" width="8.425" height="5.602" style="stroke: rgb(0, 0, 0); stroke-linecap: round; stroke-linejoin: round; fill: url(#color-1);"></rect>
    <polyline style="stroke: rgb(0, 0, 0); stroke-linecap: round; fill: url(#color-1);" points="143.166 221.822 145.026 224.08"></polyline>
    <polyline style="stroke: rgb(0, 0, 0); stroke-linecap: round; fill: url(#color-1);" points="153.37 223.866 155.148 221.874" transform="matrix(-1, 0, 0, -1, 308.51799, 445.73999)"></polyline>
    <path style="stroke: rgb(0, 0, 0); stroke-linecap: round; stroke-linejoin: round; fill: url(#color-1);" d="M 146.38 220.211 L 147.722 221.616 L 150.632 221.612 L 152.01 220.188"></path>
    <polyline style="stroke: rgb(0, 0, 0); stroke-linecap: round; fill: url(#color-1);" points="142.833 225.295 142.839 228.606"></polyline>
    <polyline style="stroke: rgb(0, 0, 0); stroke-linecap: round; fill: url(#color-1);" points="155.408 225.273 155.414 228.584"></polyline>
    <polyline style="stroke: rgb(0, 0, 0); stroke-linecap: round; fill: url(#color-1);" points="142.891 226.436 144.842 226.022" transform="matrix(-1, 0, 0, -1, 287.733002, 452.458008)"></polyline>
    <polyline style="stroke: rgb(0, 0, 0); stroke-linecap: round; fill: url(#color-1);" points="153.341 226.133 155.292 226.547" transform="matrix(-1, 0, 0, -1, 308.633011, 452.679993)"></polyline>
  </g>
  <g transform="matrix(1, 0, 0, 1, 27.937588, 78.428024)">
    <path style="stroke: rgb(0, 0, 0); stroke-linecap: round; fill: url(#color-1);" d="M 143.148 221.802 C 145.288 219.237 153.102 219.237 155.242 221.802"></path>
    <rect x="144.873" y="224.08" width="8.425" height="5.602" style="stroke: rgb(0, 0, 0); stroke-linecap: round; stroke-linejoin: round; fill: url(#color-1);"></rect>
    <polyline style="stroke: rgb(0, 0, 0); stroke-linecap: round; fill: url(#color-1);" points="143.166 221.822 145.026 224.08"></polyline>
    <polyline style="stroke: rgb(0, 0, 0); stroke-linecap: round; fill: url(#color-1);" points="153.37 223.866 155.148 221.874" transform="matrix(-1, 0, 0, -1, 308.51799, 445.73999)"></polyline>
    <path style="stroke: rgb(0, 0, 0); stroke-linecap: round; stroke-linejoin: round; fill: url(#color-1);" d="M 146.38 220.211 L 147.722 221.616 L 150.632 221.612 L 152.01 220.188"></path>
    <polyline style="stroke: rgb(0, 0, 0); stroke-linecap: round; fill: url(#color-1);" points="142.833 225.295 142.839 228.606"></polyline>
    <polyline style="stroke: rgb(0, 0, 0); stroke-linecap: round; fill: url(#color-1);" points="155.408 225.273 155.414 228.584"></polyline>
    <polyline style="stroke: rgb(0, 0, 0); stroke-linecap: round; fill: url(#color-1);" points="142.891 226.436 144.842 226.022" transform="matrix(-1, 0, 0, -1, 287.733002, 452.458008)"></polyline>
    <polyline style="stroke: rgb(0, 0, 0); stroke-linecap: round; fill: url(#color-1);" points="153.341 226.133 155.292 226.547" transform="matrix(-1, 0, 0, -1, 308.633011, 452.679993)"></polyline>
  </g>
  <g transform="matrix(1, 0, 0, 1, 61.983074, 78.428024)">
    <path style="stroke: rgb(0, 0, 0); stroke-linecap: round; fill: url(#color-1);" d="M 143.148 221.802 C 145.288 219.237 153.102 219.237 155.242 221.802"></path>
    <rect x="144.873" y="224.08" width="8.425" height="5.602" style="stroke: rgb(0, 0, 0); stroke-linecap: round; stroke-linejoin: round; fill: url(#color-1);"></rect>
    <polyline style="stroke: rgb(0, 0, 0); stroke-linecap: round; fill: url(#color-1);" points="143.166 221.822 145.026 224.08"></polyline>
    <polyline style="stroke: rgb(0, 0, 0); stroke-linecap: round; fill: url(#color-1);" points="153.37 223.866 155.148 221.874" transform="matrix(-1, 0, 0, -1, 308.51799, 445.73999)"></polyline>
    <path style="stroke: rgb(0, 0, 0); stroke-linecap: round; stroke-linejoin: round; fill: url(#color-1);" d="M 146.38 220.211 L 147.722 221.616 L 150.632 221.612 L 152.01 220.188"></path>
    <polyline style="stroke: rgb(0, 0, 0); stroke-linecap: round; fill: url(#color-1);" points="142.833 225.295 142.839 228.606"></polyline>
    <polyline style="stroke: rgb(0, 0, 0); stroke-linecap: round; fill: url(#color-1);" points="155.408 225.273 155.414 228.584"></polyline>
    <polyline style="stroke: rgb(0, 0, 0); stroke-linecap: round; fill: url(#color-1);" points="142.891 226.436 144.842 226.022" transform="matrix(-1, 0, 0, -1, 287.733002, 452.458008)"></polyline>
    <polyline style="stroke: rgb(0, 0, 0); stroke-linecap: round; fill: url(#color-1);" points="153.341 226.133 155.292 226.547" transform="matrix(-1, 0, 0, -1, 308.633011, 452.679993)"></polyline>
  </g>
  <g transform="matrix(1, 0, 0, 1, 89.920662, 78.428017)">
    <path style="stroke: rgb(0, 0, 0); stroke-linecap: round; fill: url(#color-1);" d="M 143.148 221.802 C 145.288 219.237 153.102 219.237 155.242 221.802"></path>
    <rect x="144.873" y="224.08" width="8.425" height="5.602" style="stroke: rgb(0, 0, 0); stroke-linecap: round; stroke-linejoin: round; fill: url(#color-1);"></rect>
    <polyline style="stroke: rgb(0, 0, 0); stroke-linecap: round; fill: url(#color-1);" points="143.166 221.822 145.026 224.08"></polyline>
    <polyline style="stroke: rgb(0, 0, 0); stroke-linecap: round; fill: url(#color-1);" points="153.37 223.866 155.148 221.874" transform="matrix(-1, 0, 0, -1, 308.51799, 445.73999)"></polyline>
    <path style="stroke: rgb(0, 0, 0); stroke-linecap: round; stroke-linejoin: round; fill: url(#color-1);" d="M 146.38 220.211 L 147.722 221.616 L 150.632 221.612 L 152.01 220.188"></path>
    <polyline style="stroke: rgb(0, 0, 0); stroke-linecap: round; fill: url(#color-1);" points="142.833 225.295 142.839 228.606"></polyline>
    <polyline style="stroke: rgb(0, 0, 0); stroke-linecap: round; fill: url(#color-1);" points="155.408 225.273 155.414 228.584"></polyline>
    <polyline style="stroke: rgb(0, 0, 0); stroke-linecap: round; fill: url(#color-1);" points="142.891 226.436 144.842 226.022" transform="matrix(-1, 0, 0, -1, 287.733002, 452.458008)"></polyline>
    <polyline style="stroke: rgb(0, 0, 0); stroke-linecap: round; fill: url(#color-1);" points="153.341 226.133 155.292 226.547" transform="matrix(-1, 0, 0, -1, 308.633011, 452.679993)"></polyline>
  </g>
  <g transform="matrix(1, 0, 0, 1, 123.845131, 78.428024)">
    <path style="stroke: rgb(0, 0, 0); stroke-linecap: round; fill: url(#color-1);" d="M 143.148 221.802 C 145.288 219.237 153.102 219.237 155.242 221.802"></path>
    <rect x="144.873" y="224.08" width="8.425" height="5.602" style="stroke: rgb(0, 0, 0); stroke-linecap: round; stroke-linejoin: round; fill: url(#color-1);"></rect>
    <polyline style="stroke: rgb(0, 0, 0); stroke-linecap: round; fill: url(#color-1);" points="143.166 221.822 145.026 224.08"></polyline>
    <polyline style="stroke: rgb(0, 0, 0); stroke-linecap: round; fill: url(#color-1);" points="153.37 223.866 155.148 221.874" transform="matrix(-1, 0, 0, -1, 308.51799, 445.73999)"></polyline>
    <path style="stroke: rgb(0, 0, 0); stroke-linecap: round; stroke-linejoin: round; fill: url(#color-1);" d="M 146.38 220.211 L 147.722 221.616 L 150.632 221.612 L 152.01 220.188"></path>
    <polyline style="stroke: rgb(0, 0, 0); stroke-linecap: round; fill: url(#color-1);" points="142.833 225.295 142.839 228.606"></polyline>
    <polyline style="stroke: rgb(0, 0, 0); stroke-linecap: round; fill: url(#color-1);" points="155.408 225.273 155.414 228.584"></polyline>
    <polyline style="stroke: rgb(0, 0, 0); stroke-linecap: round; fill: url(#color-1);" points="142.891 226.436 144.842 226.022" transform="matrix(-1, 0, 0, -1, 287.733002, 452.458008)"></polyline>
    <polyline style="stroke: rgb(0, 0, 0); stroke-linecap: round; fill: url(#color-1);" points="153.341 226.133 155.292 226.547" transform="matrix(-1, 0, 0, -1, 308.633011, 452.679993)"></polyline>
  </g>
  <g transform="matrix(1, 0, 0, 1, 151.78273, 78.428017)">
    <path style="stroke: rgb(0, 0, 0); stroke-linecap: round; fill: url(#color-1);" d="M 143.148 221.802 C 145.288 219.237 153.102 219.237 155.242 221.802"></path>
    <rect x="144.873" y="224.08" width="8.425" height="5.602" style="stroke: rgb(0, 0, 0); stroke-linecap: round; stroke-linejoin: round; fill: url(#color-1);"></rect>
    <polyline style="stroke: rgb(0, 0, 0); stroke-linecap: round; fill: url(#color-1);" points="143.166 221.822 145.026 224.08"></polyline>
    <polyline style="stroke: rgb(0, 0, 0); stroke-linecap: round; fill: url(#color-1);" points="153.37 223.866 155.148 221.874" transform="matrix(-1, 0, 0, -1, 308.51799, 445.73999)"></polyline>
    <path style="stroke: rgb(0, 0, 0); stroke-linecap: round; stroke-linejoin: round; fill: url(#color-1);" d="M 146.38 220.211 L 147.722 221.616 L 150.632 221.612 L 152.01 220.188"></path>
    <polyline style="stroke: rgb(0, 0, 0); stroke-linecap: round; fill: url(#color-1);" points="142.833 225.295 142.839 228.606"></polyline>
    <polyline style="stroke: rgb(0, 0, 0); stroke-linecap: round; fill: url(#color-1);" points="155.408 225.273 155.414 228.584"></polyline>
    <polyline style="stroke: rgb(0, 0, 0); stroke-linecap: round; fill: url(#color-1);" points="142.891 226.436 144.842 226.022" transform="matrix(-1, 0, 0, -1, 287.733002, 452.458008)"></polyline>
    <polyline style="stroke: rgb(0, 0, 0); stroke-linecap: round; fill: url(#color-1);" points="153.341 226.133 155.292 226.547" transform="matrix(-1, 0, 0, -1, 308.633011, 452.679993)"></polyline>
  </g>
  <g transform="matrix(1, 0, 0, 1, -0.454834, 78.428024)">
    <path style="stroke: rgb(0, 0, 0); stroke-linecap: round; fill: url(#color-1);" d="M 143.148 221.802 C 145.288 219.237 153.102 219.237 155.242 221.802"></path>
    <rect x="144.873" y="224.08" width="8.425" height="5.602" style="stroke: rgb(0, 0, 0); stroke-linecap: round; stroke-linejoin: round; fill: url(#color-1);"></rect>
    <polyline style="stroke: rgb(0, 0, 0); stroke-linecap: round; fill: url(#color-1);" points="143.166 221.822 145.026 224.08"></polyline>
    <polyline style="stroke: rgb(0, 0, 0); stroke-linecap: round; fill: url(#color-1);" points="153.37 223.866 155.148 221.874" transform="matrix(-1, 0, 0, -1, 308.51799, 445.73999)"></polyline>
    <path style="stroke: rgb(0, 0, 0); stroke-linecap: round; stroke-linejoin: round; fill: url(#color-1);" d="M 146.38 220.211 L 147.722 221.616 L 150.632 221.612 L 152.01 220.188"></path>
    <polyline style="stroke: rgb(0, 0, 0); stroke-linecap: round; fill: url(#color-1);" points="142.833 225.295 142.839 228.606"></polyline>
    <polyline style="stroke: rgb(0, 0, 0); stroke-linecap: round; fill: url(#color-1);" points="155.408 225.273 155.414 228.584"></polyline>
    <polyline style="stroke: rgb(0, 0, 0); stroke-linecap: round; fill: url(#color-1);" points="142.891 226.436 144.842 226.022" transform="matrix(-1, 0, 0, -1, 287.733002, 452.458008)"></polyline>
    <polyline style="stroke: rgb(0, 0, 0); stroke-linecap: round; fill: url(#color-1);" points="153.341 226.133 155.292 226.547" transform="matrix(-1, 0, 0, -1, 308.633011, 452.679993)"></polyline>
  </g>
  <g transform="matrix(1, 0, 0, -1, 28.39702, 599.414063)">
    <path style="stroke: rgb(0, 0, 0); stroke-linecap: round; fill: url(#color-1);" d="M 143.148 221.802 C 145.288 219.237 153.102 219.237 155.242 221.802"></path>
    <rect x="144.873" y="224.08" width="8.425" height="5.602" style="stroke: rgb(0, 0, 0); stroke-linecap: round; stroke-linejoin: round; fill: url(#color-1);"></rect>
    <polyline style="stroke: rgb(0, 0, 0); stroke-linecap: round; fill: url(#color-1);" points="143.166 221.822 145.026 224.08"></polyline>
    <polyline style="stroke: rgb(0, 0, 0); stroke-linecap: round; fill: url(#color-1);" points="153.37 223.866 155.148 221.874" transform="matrix(-1, 0, 0, -1, 308.51799, 445.73999)"></polyline>
    <path style="stroke: rgb(0, 0, 0); stroke-linecap: round; stroke-linejoin: round; fill: url(#color-1);" d="M 146.38 220.211 L 147.722 221.616 L 150.632 221.612 L 152.01 220.188"></path>
    <polyline style="stroke: rgb(0, 0, 0); stroke-linecap: round; fill: url(#color-1);" points="142.833 225.295 142.839 228.606"></polyline>
    <polyline style="stroke: rgb(0, 0, 0); stroke-linecap: round; fill: url(#color-1);" points="155.408 225.273 155.414 228.584"></polyline>
    <polyline style="stroke: rgb(0, 0, 0); stroke-linecap: round; fill: url(#color-1);" points="142.891 226.436 144.842 226.022" transform="matrix(-1, 0, 0, -1, 287.733002, 452.458008)"></polyline>
    <polyline style="stroke: rgb(0, 0, 0); stroke-linecap: round; fill: url(#color-1);" points="153.341 226.133 155.292 226.547" transform="matrix(-1, 0, 0, -1, 308.633011, 452.679993)"></polyline>
  </g>
  <g transform="matrix(1, 0, 0, -1, 62.442509, 599.414063)">
    <path style="stroke: rgb(0, 0, 0); stroke-linecap: round; fill: url(#color-1);" d="M 143.148 221.802 C 145.288 219.237 153.102 219.237 155.242 221.802"></path>
    <rect x="144.873" y="224.08" width="8.425" height="5.602" style="stroke: rgb(0, 0, 0); stroke-linecap: round; stroke-linejoin: round; fill: url(#color-1);"></rect>
    <polyline style="stroke: rgb(0, 0, 0); stroke-linecap: round; fill: url(#color-1);" points="143.166 221.822 145.026 224.08"></polyline>
    <polyline style="stroke: rgb(0, 0, 0); stroke-linecap: round; fill: url(#color-1);" points="153.37 223.866 155.148 221.874" transform="matrix(-1, 0, 0, -1, 308.51799, 445.73999)"></polyline>
    <path style="stroke: rgb(0, 0, 0); stroke-linecap: round; stroke-linejoin: round; fill: url(#color-1);" d="M 146.38 220.211 L 147.722 221.616 L 150.632 221.612 L 152.01 220.188"></path>
    <polyline style="stroke: rgb(0, 0, 0); stroke-linecap: round; fill: url(#color-1);" points="142.833 225.295 142.839 228.606"></polyline>
    <polyline style="stroke: rgb(0, 0, 0); stroke-linecap: round; fill: url(#color-1);" points="155.408 225.273 155.414 228.584"></polyline>
    <polyline style="stroke: rgb(0, 0, 0); stroke-linecap: round; fill: url(#color-1);" points="142.891 226.436 144.842 226.022" transform="matrix(-1, 0, 0, -1, 287.733002, 452.458008)"></polyline>
    <polyline style="stroke: rgb(0, 0, 0); stroke-linecap: round; fill: url(#color-1);" points="153.341 226.133 155.292 226.547" transform="matrix(-1, 0, 0, -1, 308.633011, 452.679993)"></polyline>
  </g>
  <g transform="matrix(1, 0, 0, -1, 90.380089, 599.414063)">
    <path style="stroke: rgb(0, 0, 0); stroke-linecap: round; fill: url(#color-1);" d="M 143.148 221.802 C 145.288 219.237 153.102 219.237 155.242 221.802"></path>
    <rect x="144.873" y="224.08" width="8.425" height="5.602" style="stroke: rgb(0, 0, 0); stroke-linecap: round; stroke-linejoin: round; fill: url(#color-1);"></rect>
    <polyline style="stroke: rgb(0, 0, 0); stroke-linecap: round; fill: url(#color-1);" points="143.166 221.822 145.026 224.08"></polyline>
    <polyline style="stroke: rgb(0, 0, 0); stroke-linecap: round; fill: url(#color-1);" points="153.37 223.866 155.148 221.874" transform="matrix(-1, 0, 0, -1, 308.51799, 445.73999)"></polyline>
    <path style="stroke: rgb(0, 0, 0); stroke-linecap: round; stroke-linejoin: round; fill: url(#color-1);" d="M 146.38 220.211 L 147.722 221.616 L 150.632 221.612 L 152.01 220.188"></path>
    <polyline style="stroke: rgb(0, 0, 0); stroke-linecap: round; fill: url(#color-1);" points="142.833 225.295 142.839 228.606"></polyline>
    <polyline style="stroke: rgb(0, 0, 0); stroke-linecap: round; fill: url(#color-1);" points="155.408 225.273 155.414 228.584"></polyline>
    <polyline style="stroke: rgb(0, 0, 0); stroke-linecap: round; fill: url(#color-1);" points="142.891 226.436 144.842 226.022" transform="matrix(-1, 0, 0, -1, 287.733002, 452.458008)"></polyline>
    <polyline style="stroke: rgb(0, 0, 0); stroke-linecap: round; fill: url(#color-1);" points="153.341 226.133 155.292 226.547" transform="matrix(-1, 0, 0, -1, 308.633011, 452.679993)"></polyline>
  </g>
  <g transform="matrix(1, 0, 0, -1, 123.966431, 599.414063)">
    <path style="stroke: rgb(0, 0, 0); stroke-linecap: round; fill: url(#color-1);" d="M 143.148 221.802 C 145.288 219.237 153.102 219.237 155.242 221.802"></path>
    <rect x="144.873" y="224.08" width="8.425" height="5.602" style="stroke: rgb(0, 0, 0); stroke-linecap: round; stroke-linejoin: round; fill: url(#color-1);"></rect>
    <polyline style="stroke: rgb(0, 0, 0); stroke-linecap: round; fill: url(#color-1);" points="143.166 221.822 145.026 224.08"></polyline>
    <polyline style="stroke: rgb(0, 0, 0); stroke-linecap: round; fill: url(#color-1);" points="153.37 223.866 155.148 221.874" transform="matrix(-1, 0, 0, -1, 308.51799, 445.73999)"></polyline>
    <path style="stroke: rgb(0, 0, 0); stroke-linecap: round; stroke-linejoin: round; fill: url(#color-1);" d="M 146.38 220.211 L 147.722 221.616 L 150.632 221.612 L 152.01 220.188"></path>
    <polyline style="stroke: rgb(0, 0, 0); stroke-linecap: round; fill: url(#color-1);" points="142.833 225.295 142.839 228.606"></polyline>
    <polyline style="stroke: rgb(0, 0, 0); stroke-linecap: round; fill: url(#color-1);" points="155.408 225.273 155.414 228.584"></polyline>
    <polyline style="stroke: rgb(0, 0, 0); stroke-linecap: round; fill: url(#color-1);" points="142.891 226.436 144.842 226.022" transform="matrix(-1, 0, 0, -1, 287.733002, 452.458008)"></polyline>
    <polyline style="stroke: rgb(0, 0, 0); stroke-linecap: round; fill: url(#color-1);" points="153.341 226.133 155.292 226.547" transform="matrix(-1, 0, 0, -1, 308.633011, 452.679993)"></polyline>
  </g>
  <g transform="matrix(1, 0, 0, -1, 152.242172, 599.414063)">
    <path style="stroke: rgb(0, 0, 0); stroke-linecap: round; fill: url(#color-1);" d="M 143.148 221.802 C 145.288 219.237 153.102 219.237 155.242 221.802"></path>
    <rect x="144.873" y="224.08" width="8.425" height="5.602" style="stroke: rgb(0, 0, 0); stroke-linecap: round; stroke-linejoin: round; fill: url(#color-1);"></rect>
    <polyline style="stroke: rgb(0, 0, 0); stroke-linecap: round; fill: url(#color-1);" points="143.166 221.822 145.026 224.08"></polyline>
    <polyline style="stroke: rgb(0, 0, 0); stroke-linecap: round; fill: url(#color-1);" points="153.37 223.866 155.148 221.874" transform="matrix(-1, 0, 0, -1, 308.51799, 445.73999)"></polyline>
    <path style="stroke: rgb(0, 0, 0); stroke-linecap: round; stroke-linejoin: round; fill: url(#color-1);" d="M 146.38 220.211 L 147.722 221.616 L 150.632 221.612 L 152.01 220.188"></path>
    <polyline style="stroke: rgb(0, 0, 0); stroke-linecap: round; fill: url(#color-1);" points="142.833 225.295 142.839 228.606"></polyline>
    <polyline style="stroke: rgb(0, 0, 0); stroke-linecap: round; fill: url(#color-1);" points="155.408 225.273 155.414 228.584"></polyline>
    <polyline style="stroke: rgb(0, 0, 0); stroke-linecap: round; fill: url(#color-1);" points="142.891 226.436 144.842 226.022" transform="matrix(-1, 0, 0, -1, 287.733002, 452.458008)"></polyline>
    <polyline style="stroke: rgb(0, 0, 0); stroke-linecap: round; fill: url(#color-1);" points="153.341 226.133 155.292 226.547" transform="matrix(-1, 0, 0, -1, 308.633011, 452.679993)"></polyline>
  </g>
  <g transform="matrix(1, 0, 0, -1, 0.004603, 599.414063)">
    <path style="stroke: rgb(0, 0, 0); stroke-linecap: round; fill: url(#color-1);" d="M 143.148 221.802 C 145.288 219.237 153.102 219.237 155.242 221.802"></path>
    <rect x="144.873" y="224.08" width="8.425" height="5.602" style="stroke: rgb(0, 0, 0); stroke-linecap: round; stroke-linejoin: round; fill: url(#color-1);"></rect>
    <polyline style="stroke: rgb(0, 0, 0); stroke-linecap: round; fill: url(#color-1);" points="143.166 221.822 145.026 224.08"></polyline>
    <polyline style="stroke: rgb(0, 0, 0); stroke-linecap: round; fill: url(#color-1);" points="153.37 223.866 155.148 221.874" transform="matrix(-1, 0, 0, -1, 308.51799, 445.73999)"></polyline>
    <path style="stroke: rgb(0, 0, 0); stroke-linecap: round; stroke-linejoin: round; fill: url(#color-1);" d="M 146.38 220.211 L 147.722 221.616 L 150.632 221.612 L 152.01 220.188"></path>
    <polyline style="stroke: rgb(0, 0, 0); stroke-linecap: round; fill: url(#color-1);" points="142.833 225.295 142.839 228.606"></polyline>
    <polyline style="stroke: rgb(0, 0, 0); stroke-linecap: round; fill: url(#color-1);" points="155.408 225.273 155.414 228.584"></polyline>
    <polyline style="stroke: rgb(0, 0, 0); stroke-linecap: round; fill: url(#color-1);" points="142.891 226.436 144.842 226.022" transform="matrix(-1, 0, 0, -1, 287.733002, 452.458008)"></polyline>
    <polyline style="stroke: rgb(0, 0, 0); stroke-linecap: round; fill: url(#color-1);" points="153.341 226.133 155.292 226.547" transform="matrix(-1, 0, 0, -1, 308.633011, 452.679993)"></polyline>
  </g>
  <text style="fill: rgb(51, 51, 51); font-family: Arial, sans-serif; font-size: 8px; white-space: pre; text-anchor: middle;" x="149.146" y="319.37">01</text>
  <text style="fill: rgb(51, 51, 51); font-family: Arial, sans-serif; font-size: 8px; white-space: pre; text-anchor: middle;" x="176.951" y="319.421">02</text>
  <text style="fill: rgb(51, 51, 51); font-family: Arial, sans-serif; font-size: 8px; white-space: pre; text-anchor: middle;" x="210.801" y="319.49">03</text>
  <text style="fill: rgb(51, 51, 51); font-family: Arial, sans-serif; font-size: 8px; white-space: pre; text-anchor: middle;" x="239.344" y="319.408">04</text>
  <text style="fill: rgb(51, 51, 51); font-family: Arial, sans-serif; font-size: 8px; white-space: pre; text-anchor: middle;" x="272.951" y="319.411">05</text>
  <text style="fill: rgb(51, 51, 51); font-family: Arial, sans-serif; font-size: 8px; white-space: pre; text-anchor: middle;" x="301.355" y="319.462">06</text>
  <text style="fill: rgb(51, 51, 51); font-family: Arial, sans-serif; font-size: 8px; white-space: pre; text-anchor: middle;" x="301.692" y="364.069">07</text>
  <text style="fill: rgb(51, 51, 51); font-family: Arial, sans-serif; font-size: 8px; white-space: pre; text-anchor: middle;" x="273.009" y="364.293">08</text>
  <text style="fill: rgb(51, 51, 51); font-family: Arial, sans-serif; font-size: 8px; white-space: pre; text-anchor: middle;" x="239.397" y="364.122">09</text>
  <text style="fill: rgb(51, 51, 51); font-family: Arial, sans-serif; font-size: 8px; white-space: pre;" x="206.364" y="364.035">10</text>
  <text style="fill: rgb(51, 51, 51); font-family: Arial, sans-serif; font-size: 8px; white-space: pre; text-anchor: middle;" x="177.284" y="364.245">11</text>
  <text style="fill: rgb(51, 51, 51); font-family: Arial, sans-serif; font-size: 8px; white-space: pre; text-anchor: middle;" x="149.047" y="364.179">12</text>
  <text style="fill: rgb(51, 51, 51); font-family: Arial, sans-serif; font-size: 8px; text-anchor: middle; white-space: pre;" x="120.983" y="358.713">A</text>
  <polyline style="stroke: rgb(0, 0, 0); marker-end: url(#marker-0); fill: none; paint-order: fill;" points="385.526 280.1 385.526 218.478 334.856 218.478"></polyline>
  <text style="fill: rgb(227, 14, 106); font-family: Arial, sans-serif; font-size: 24px; font-weight: 700; text-anchor: middle; white-space: pre;" transform="matrix(1, 0, 0, 1, 112.004105, -3.334201)"><tspan x="138.605" y="457.602">Arena Massacratoio </tspan><tspan x="138.605" dy="1em">​</tspan><tspan>Maniago</tspan></text>
  <text style="fill: rgb(46, 140, 217); font-family: Arial, sans-serif; font-size: 25px; font-weight: 700; text-anchor: middle; white-space: pre;" transform="matrix(1, 0, 0, 1, 121.113075, 16.348028)"><tspan x="129.49" y="56.752">((6)) Team Macinacapre</tspan><tspan x="129.49" dy="1em">​</tspan><tspan x="129.49" dy="1em">​</tspan></text>
</svg>